
<svg width="100%" height="100%" viewBox="0 0 85 78" fill="none" xmlns="http://www.w3.org/2000/svg">
<mask id="path-1-inside-1_511_43242" fill="white">
<path d="M18.1842 -0.00390625C8.14244 -0.00389825 0.00205526 2.84496 0.00219726 6.35916C0.00239726 9.87329 8.14266 12.722 18.1842 12.722C21.6297 12.722 24.8512 12.3867 27.597 11.8041C28.0961 11.2193 28.6532 10.6462 29.2789 10.0974C29.2597 10.1121 29.3753 9.995 29.4156 9.87009C29.4804 9.66903 29.5164 9.48865 29.5164 9.48865C29.5974 9.06565 29.8273 8.68571 30.1645 8.41777C30.5017 8.14982 30.9237 8.01164 31.3541 8.0283C31.686 8.04113 32.0079 8.14556 32.2841 8.33001C32.5604 8.51447 32.7802 8.77176 32.9193 9.07341C32.9193 9.07341 33.1071 9.45798 33.323 9.88396C35.2452 8.8749 36.3663 7.66286 36.3664 6.35916C36.3592 6.22963 36.3407 6.10021 36.3109 5.97108C36.2822 5.80716 36.2355 5.64369 36.1707 5.48104C34.9199 2.33934 27.2482 -0.00013526 18.1842 -0.00390625ZM29.5123 9.89568C29.3719 10.0142 29.3111 10.0695 29.2894 10.0883C29.363 10.0238 29.4368 9.95941 29.5123 9.89568ZM0.00219726 9.97654V15.4685C0.0328112 18.9748 8.16301 21.8117 18.1822 21.8121C19.8571 21.8121 21.4772 21.7313 23.0174 21.583C23.1851 20.3911 23.4859 19.2081 23.9564 18.0785C24.4688 16.8483 25.1133 15.3982 26.0418 13.9248C23.6319 14.312 20.9803 14.5222 18.1842 14.5222C12.9931 14.5222 8.29277 13.8032 4.73304 12.5574C2.95318 11.9345 1.45185 11.1894 0.283642 10.2228C0.187708 10.1434 0.094327 10.0607 0.00219726 9.97654ZM36.3664 9.97654C36.2742 10.0607 36.1809 10.1434 36.0849 10.2228C35.5478 10.6672 34.9394 11.0643 34.2668 11.4248C34.8277 12.0865 35.6168 12.8181 36.3664 13.8199V9.97654ZM31.1535 13.2756C29.1951 15.187 28.125 17.4333 27.2797 19.4626C27.0747 19.9547 26.9161 20.4908 26.7969 21.0537C27.7195 20.8796 28.5916 20.6773 29.4097 20.4521L29.4439 19.0746C29.4562 18.6121 29.6461 18.1721 29.9742 17.8459C30.3022 17.5197 30.7433 17.3324 31.2058 17.3227C31.6683 17.313 32.1168 17.4818 32.4583 17.794C32.7997 18.1062 33.0078 18.5378 33.0394 18.9994L33.047 19.114C33.6894 18.7955 34.2499 18.4555 34.7187 18.0976C34.4246 17.4722 34.0995 16.8778 33.7306 16.3242C33.1769 15.4931 32.1237 14.6093 31.1535 13.2756ZM0.00219726 19.0683V24.5763C0.0328102 28.0826 8.16301 30.9195 18.1822 30.9198C20.1958 30.9198 22.1308 30.8038 23.9412 30.5923C23.9315 30.5642 23.921 30.5365 23.9115 30.5083C23.2408 28.5071 22.7754 25.9903 22.8605 23.4095C21.3614 23.5427 19.7956 23.6122 18.1822 23.6122C12.9912 23.6122 8.29082 22.8932 4.73109 21.6474C2.95123 21.0245 1.4499 20.2794 0.281689 19.3128C0.186428 19.234 0.093698 19.1518 0.00219726 19.0683ZM35.4261 19.8091C34.7602 20.2706 34.0075 20.6776 33.1756 21.0435L33.6332 27.9118C35.3638 26.9378 36.3644 25.7883 36.3644 24.557V25.5152C36.365 25.5042 36.3658 25.4933 36.3664 25.4824V24.2132C36.2986 22.8679 36.034 21.5489 35.5834 20.2488C35.5321 20.1009 35.4794 19.9548 35.4261 19.8091ZM29.3633 22.3292C28.4721 22.5587 27.5308 22.7599 26.5461 22.9308C26.3983 25.2155 26.7498 27.6487 27.3248 29.3644C27.3923 29.5657 27.4869 29.7791 27.6027 30.0003C28.1495 29.8842 28.6756 29.7574 29.1826 29.6224L29.3633 22.3292ZM0.00219726 28.1761V33.6153C0.00149726 33.6199 0.000884139 33.6245 0.000244141 33.629C0.00044414 37.1431 8.14071 39.9919 18.1822 39.9919C22.3713 39.9919 26.2264 39.4948 29.3008 38.6618C29.2984 38.6147 29.2972 38.5725 29.2945 38.5241C29.2741 38.1626 29.2221 37.79 29.1802 37.5089C28.3095 36.794 26.1159 34.876 24.7119 32.3161C22.668 32.5797 20.4731 32.72 18.1822 32.72C12.9912 32.72 8.29082 32.001 4.73109 30.7552C2.95123 30.1323 1.4499 29.3872 0.281689 28.4206C0.186428 28.3418 0.093698 28.2596 0.00219726 28.1761ZM35.8923 28.5734C35.269 29.0618 34.5571 29.4925 33.7642 29.8788L33.9295 32.3599C34.3775 31.7748 34.8017 31.1716 35.0525 30.6528C35.4214 29.8897 35.7246 29.2079 35.8923 28.5734ZM29.1361 31.4939C28.9835 31.532 28.8312 31.5703 28.6758 31.6068C28.8199 31.7919 28.9676 31.9767 29.1197 32.1589L29.1361 31.4939Z"/>
</mask>
<path d="M18.1842 -0.00390625L18.1854 -3.00391H18.1842L18.1842 -0.00390625ZM0.00219726 6.35916L-2.9978 6.35928V6.35933L0.00219726 6.35916ZM18.1842 12.722L18.1842 9.72204H18.1842L18.1842 12.722ZM27.597 11.8041L28.2197 14.7387L29.217 14.5271L29.8789 13.7517L27.597 11.8041ZM29.2789 10.0974L31.257 12.3529L27.4623 7.70994L29.2789 10.0974ZM29.4156 9.87009L26.5603 8.94952L26.5603 8.94952L29.4156 9.87009ZM29.5164 9.48865L32.4585 10.0751L32.4607 10.0639L32.4629 10.0527L29.5164 9.48865ZM31.3541 8.0283L31.238 11.0261L31.2381 11.0261L31.3541 8.0283ZM32.9193 9.07341V12.0734H37.6059L35.6437 7.81734L32.9193 9.07341ZM33.323 9.88396L30.6471 11.2402L32.0229 13.9547L34.7174 12.5402L33.323 9.88396ZM36.3664 6.35916L39.3664 6.35931L39.3664 6.27592L39.3617 6.19266L36.3664 6.35916ZM36.3109 5.97108L33.3557 6.4877L33.3696 6.56686L33.3876 6.64516L36.3109 5.97108ZM36.1707 5.48104L33.3834 6.59067L33.3837 6.59133L36.1707 5.48104ZM29.2894 10.0883L27.3133 7.83109L31.249 12.3599L29.2894 10.0883ZM0.00219726 9.97654L2.02518 7.76124L-2.9978 3.17431V9.97654H0.00219726ZM0.00219726 15.4685H-2.9978V15.4816L-2.99769 15.4947L0.00219726 15.4685ZM18.1822 21.8121L18.1821 24.8121H18.1822L18.1822 21.8121ZM23.0174 21.583L23.3051 24.5691L25.6587 24.3424L25.9881 22.0009L23.0174 21.583ZM23.9564 18.0785L21.1871 16.925L21.1871 16.925L23.9564 18.0785ZM26.0418 13.9248L28.5799 15.5242L32.1176 9.91009L25.5659 10.9628L26.0418 13.9248ZM0.283642 10.2228L-1.62881 12.5342L-1.6288 12.5342L0.283642 10.2228ZM36.3664 9.97654H39.3664V3.17431L34.3434 7.76124L36.3664 9.97654ZM36.0849 10.2228L34.1725 7.91142L34.1725 7.91143L36.0849 10.2228ZM34.2668 11.4248L32.8499 8.78045L29.5785 10.5333L31.9782 13.3645L34.2668 11.4248ZM36.3664 13.8199L33.9644 15.6173L39.3664 22.8363V13.8199H36.3664ZM31.1535 13.2756L33.5795 11.5107L31.5395 8.70658L29.058 11.1287L31.1535 13.2756ZM27.2797 19.4626L24.5103 18.3091L24.5103 18.3091L27.2797 19.4626ZM26.7969 21.0537L23.862 20.4318L22.9287 24.8363L27.353 24.0017L26.7969 21.0537ZM29.4097 20.4521L30.2058 23.3445L32.3536 22.7534L32.4088 20.5265L29.4097 20.4521ZM29.4439 19.0746L26.445 18.9947L26.4448 19.0001L29.4439 19.0746ZM33.0394 18.9994L36.0328 18.8005L36.0324 18.7942L33.0394 18.9994ZM33.047 19.114L30.0536 19.3129L30.3517 23.799L34.3797 21.8017L33.047 19.114ZM34.7187 18.0976L36.5392 20.4821L38.4642 19.0124L37.4334 16.8208L34.7187 18.0976ZM33.7306 16.3242L36.2272 14.6608V14.6608L33.7306 16.3242ZM0.00219726 19.0683L2.02471 16.8526L-2.9978 12.268V19.0683H0.00219726ZM0.00219726 24.5763H-2.9978V24.5894L-2.99769 24.6025L0.00219726 24.5763ZM18.1822 30.9198L18.1821 33.9198H18.1822L18.1822 30.9198ZM23.9412 30.5923L24.2893 33.572L27.9945 33.1392L26.7769 29.6131L23.9412 30.5923ZM23.9115 30.5083L21.067 31.4616L21.067 31.4617L23.9115 30.5083ZM22.8605 23.4095L25.8589 23.5084L25.9707 20.1215L22.5951 20.4213L22.8605 23.4095ZM4.73109 21.6474L3.74014 24.479H3.74014L4.73109 21.6474ZM0.281689 19.3128L-1.63076 21.6242L-1.63076 21.6242L0.281689 19.3128ZM35.4261 19.8091L38.2439 18.7795L36.9105 15.1304L33.7173 17.3434L35.4261 19.8091ZM33.1756 21.0435L31.9677 18.2974L30.0424 19.1442L30.1822 21.2429L33.1756 21.0435ZM33.6332 27.9118L30.6398 28.1113L30.9563 32.861L35.1046 30.5262L33.6332 27.9118ZM36.3644 24.557H39.3644L33.3644 24.5568L36.3644 24.557ZM36.3644 25.5152H33.3644L39.3604 25.6707L36.3644 25.5152ZM36.3664 25.4824L39.3627 25.6305L39.3664 25.5565V25.4824H36.3664ZM36.3664 24.2132H39.3664V24.1377L39.3626 24.0624L36.3664 24.2132ZM35.5834 20.2488L32.7488 21.2313L32.7488 21.2313L35.5834 20.2488ZM29.3633 22.3292L32.3623 22.4035L32.4607 18.434L28.6153 19.424L29.3633 22.3292ZM26.5461 22.9308L26.0331 19.975L23.7049 20.3791L23.5523 22.7372L26.5461 22.9308ZM27.3248 29.3644L30.1693 28.4111L30.1693 28.4111L27.3248 29.3644ZM27.6027 30.0003L24.9449 31.3916L26.0002 33.4076L28.226 32.9348L27.6027 30.0003ZM29.1826 29.6224L29.9548 32.5213L32.126 31.9429L32.1817 29.6967L29.1826 29.6224ZM0.00219726 28.1761L2.02472 25.9604L-2.9978 21.3758V28.1761H0.00219726ZM0.00219726 33.6153L2.96746 34.0705L3.0022 33.8443V33.6153H0.00219726ZM0.000244141 33.629L-2.97066 33.2122L-2.99977 33.4197L-2.99976 33.6292L0.000244141 33.629ZM18.1822 39.9919L18.1822 42.9919H18.1822L18.1822 39.9919ZM29.3008 38.6618L30.0854 41.5574L32.4161 40.9258L32.2971 38.514L29.3008 38.6618ZM29.2945 38.5241L26.2993 38.6928L26.2993 38.6928L29.2945 38.5241ZM29.1802 37.5089L32.1475 37.0667L31.9771 35.9236L31.084 35.1903L29.1802 37.5089ZM24.7119 32.3161L27.3423 30.8735L26.3581 29.079L24.3282 29.3408L24.7119 32.3161ZM4.73109 30.7552L5.72204 27.9236L5.72204 27.9236L4.73109 30.7552ZM0.281689 28.4206L2.19413 26.1092L2.19412 26.1092L0.281689 28.4206ZM35.8923 28.5734L38.7927 29.34L41.0766 20.6997L34.042 26.212L35.8923 28.5734ZM33.7642 29.8788L32.4503 27.1819L30.6368 28.0654L30.7709 30.0782L33.7642 29.8788ZM33.9295 32.3599L30.9361 32.5592L31.4657 40.5111L36.3112 34.1839L33.9295 32.3599ZM35.0525 30.6528L32.3515 29.3472V29.3472L35.0525 30.6528ZM29.1361 31.4939L32.1352 31.5678L32.2324 27.6284L28.4092 28.5833L29.1361 31.4939ZM28.6758 31.6068L27.9905 28.6861L23.4323 29.7555L26.3086 33.4498L28.6758 31.6068ZM29.1197 32.1589L26.8165 34.0812L31.9223 40.1989L32.1188 32.2329L29.1197 32.1589ZM18.1842 -3.00391C12.918 -3.0039 8.02199 -2.26159 4.33652 -0.971801C2.50764 -0.331758 0.81376 0.49926 -0.481526 1.57101C-1.75771 2.62695 -2.99789 4.22978 -2.9978 6.35928L3.0022 6.35904C3.00221 6.73144 2.77953 6.66033 3.34343 6.19375C3.88823 5.74297 4.85703 5.20286 6.31845 4.69141C9.21357 3.67822 13.4086 2.9961 18.1842 2.99609L18.1842 -3.00391ZM-2.9978 6.35933C-2.99768 8.48873 -1.75746 10.0914 -0.481279 11.1473C0.814022 12.219 2.50789 13.05 4.33676 13.69C8.0222 14.9798 12.9181 15.722 18.1842 15.722L18.1842 9.72204C13.4087 9.72203 9.21375 9.03994 6.31863 8.02678C4.85722 7.51535 3.88839 6.97525 3.34353 6.52446C2.77956 6.05784 3.00218 5.98666 3.0022 6.35899L-2.9978 6.35933ZM18.1842 15.722C21.8156 15.722 25.2475 15.3694 28.2197 14.7387L26.9744 8.8694C24.4549 9.40396 21.4438 9.72205 18.1842 9.72204L18.1842 15.722ZM29.8789 13.7517C30.2905 13.2695 30.7467 12.8004 31.257 12.3529L27.3008 7.84197C26.5596 8.49196 25.9018 9.16914 25.3152 9.85647L29.8789 13.7517ZM27.4623 7.70994C27.4871 7.69108 27.5967 7.60721 27.7484 7.51732C27.814 7.47847 27.9991 7.37077 28.2557 7.27785C28.3851 7.23101 28.6236 7.15408 28.9337 7.11837C29.2217 7.0852 29.8014 7.06004 30.4569 7.34053C31.2193 7.66673 31.7872 8.28064 32.0709 9.00659C32.3136 9.62735 32.2877 10.1666 32.2583 10.4304C32.202 10.9368 32.0262 11.3015 31.9911 11.376C31.8822 11.6073 31.7658 11.7732 31.7519 11.7934C31.6688 11.9146 31.5715 12.0311 31.6212 11.9695C31.6293 11.9595 31.6832 11.8934 31.7448 11.8094C31.8349 11.6863 32.1016 11.3157 32.2709 10.7907L26.5603 8.94952C26.6893 8.54936 26.878 8.29978 26.9051 8.26282C26.9352 8.22182 26.9612 8.19008 26.9517 8.20178C26.9513 8.20235 26.9388 8.21779 26.9251 8.23517C26.9237 8.23686 26.8665 8.30835 26.8033 8.40052C26.7887 8.42181 26.6717 8.58853 26.5626 8.82034C26.5274 8.89509 26.3516 9.26009 26.2952 9.76658C26.2658 10.0305 26.2399 10.5698 26.4826 11.1906C26.7663 11.9166 27.3342 12.5306 28.0967 12.8568C28.7523 13.1373 29.332 13.1122 29.6201 13.079C29.9303 13.0433 30.1689 12.9663 30.2984 12.9194C30.5553 12.8264 30.7406 12.7186 30.8065 12.6795C30.9589 12.5892 31.0695 12.5047 31.0954 12.4849L27.4623 7.70994ZM32.2709 10.7907C32.3322 10.6005 32.3766 10.4308 32.4052 10.3134C32.42 10.2526 32.4318 10.2007 32.4405 10.1607C32.4449 10.1406 32.4486 10.1232 32.4516 10.1089C32.4531 10.1017 32.4544 10.0953 32.4556 10.0896C32.4561 10.0868 32.4567 10.0842 32.4572 10.0818C32.4574 10.0806 32.4576 10.0794 32.4579 10.0783C32.458 10.0777 32.4581 10.0772 32.4582 10.0767C32.4582 10.0764 32.4583 10.0761 32.4583 10.0759C32.4584 10.0757 32.4584 10.0755 32.4584 10.0755C32.4585 10.0753 32.4585 10.0751 29.5164 9.48865C26.5743 8.90219 26.5743 8.902 26.5743 8.90181C26.5743 8.90175 26.5744 8.90156 26.5744 8.90144C26.5745 8.90119 26.5745 8.90094 26.5746 8.9007C26.5747 8.90021 26.5748 8.89974 26.5748 8.89927C26.575 8.89833 26.5752 8.89743 26.5754 8.89657C26.5757 8.89484 26.5761 8.89325 26.5764 8.8918C26.5769 8.88891 26.5774 8.88656 26.5778 8.88472C26.5786 8.88105 26.579 8.87932 26.579 8.87926C26.579 8.87921 26.5787 8.88067 26.578 8.88339C26.5774 8.88612 26.5765 8.88992 26.5754 8.89454C26.5698 8.91755 26.5638 8.93862 26.5603 8.94952L32.2709 10.7907ZM32.4629 10.0527C32.4089 10.3347 32.2556 10.5879 32.0309 10.7665L28.298 6.06906C27.399 6.78353 26.7858 7.79665 26.5699 8.92457L32.4629 10.0527ZM32.0309 10.7665C31.8062 10.9451 31.5249 11.0372 31.238 11.0261L31.4701 5.03054C30.3226 4.98613 29.1971 5.35459 28.298 6.06906L32.0309 10.7665ZM31.2381 11.0261C31.0169 11.0175 30.8024 10.9479 30.6182 10.825L33.95 5.83506C33.2134 5.34321 32.3551 5.06477 31.47 5.03054L31.2381 11.0261ZM30.6182 10.825C30.4341 10.702 30.2876 10.5305 30.1949 10.3295L35.6437 7.81734C35.2728 7.01298 34.6867 6.32691 33.95 5.83506L30.6182 10.825ZM32.9193 9.07341C30.2236 10.3899 30.2236 10.39 30.2236 10.39C30.2236 10.39 30.2236 10.39 30.2237 10.39C30.2237 10.3901 30.2237 10.3901 30.2237 10.3902C30.2238 10.3903 30.2238 10.3904 30.2239 10.3906C30.2241 10.3909 30.2243 10.3913 30.2245 10.3918C30.225 10.3927 30.2256 10.3941 30.2265 10.3958C30.2281 10.3992 30.2305 10.404 30.2335 10.4102C30.2396 10.4226 30.2483 10.4404 30.2594 10.4629C30.2815 10.5079 30.313 10.572 30.3515 10.6497C30.4282 10.8046 30.5335 11.0162 30.6471 11.2402L35.999 8.52773C35.8966 8.32577 35.8001 8.1321 35.7289 7.98817C35.6934 7.91648 35.6645 7.85779 35.6447 7.81739C35.6347 7.7972 35.6271 7.78162 35.622 7.7713C35.6195 7.76615 35.6176 7.76231 35.6165 7.75988C35.6159 7.75867 35.6154 7.7578 35.6152 7.7573C35.6151 7.75705 35.615 7.75689 35.615 7.75682C35.6149 7.75679 35.6149 7.75677 35.6149 7.75679C35.6149 7.75679 35.615 7.7568 35.615 7.75682C35.615 7.75683 35.615 7.75685 35.615 7.75685C35.615 7.75687 35.615 7.75689 32.9193 9.07341ZM34.7174 12.5402C36.7887 11.4529 39.3662 9.48161 39.3664 6.35931L33.3664 6.35902C33.3664 6.09238 33.4934 6.04534 33.3124 6.25123C33.1145 6.47639 32.6928 6.82653 31.9286 7.22771L34.7174 12.5402ZM39.3617 6.19266C39.3448 5.8887 39.3016 5.58951 39.2342 5.297L33.3876 6.64516C33.3797 6.61091 33.3735 6.57057 33.371 6.52566L39.3617 6.19266ZM39.2661 5.45446C39.2001 5.07711 39.0948 4.71503 38.9576 4.37075L33.3837 6.59133C33.3761 6.57235 33.3644 6.53721 33.3557 6.4877L39.2661 5.45446ZM38.9579 4.37141C38.3157 2.75817 37.0135 1.59443 35.7204 0.769758C34.3835 -0.0828246 32.7518 -0.768142 30.9825 -1.3077C27.4354 -2.38936 22.948 -3.00192 18.1854 -3.00391L18.1829 2.99609C22.4844 2.99788 26.3648 3.55694 29.2323 4.43139C30.6703 4.86988 31.7575 5.35874 32.4941 5.82853C33.2745 6.32623 33.4003 6.63306 33.3834 6.59067L38.9579 4.37141ZM27.5771 7.60332C27.4935 7.67385 27.4302 7.72854 27.3819 7.77071C27.358 7.79159 27.3392 7.80819 27.3267 7.81927C27.3196 7.82558 27.3177 7.82724 27.3159 7.82878C27.3136 7.8308 27.3201 7.8251 27.3299 7.81663L31.249 12.3599C31.2642 12.3467 31.2773 12.3352 31.283 12.3301C31.2893 12.3246 31.2968 12.318 31.3006 12.3146C31.31 12.3063 31.3192 12.2982 31.3308 12.2881C31.3534 12.2683 31.3906 12.2361 31.4475 12.188L27.5771 7.60332ZM31.2656 12.3454C31.3396 12.2806 31.395 12.2324 31.4475 12.188L27.577 7.60332C27.4786 7.68644 27.3864 7.76703 27.3133 7.83109L31.2656 12.3454ZM-2.9978 9.97654V15.4685H3.0022V9.97654H-2.9978ZM-2.99769 15.4947C-2.97917 17.6152 -1.73457 19.2068 -0.458638 20.256C0.837962 21.3222 2.53037 22.1498 4.35814 22.7875C8.04079 24.0725 12.9275 24.8119 18.1821 24.8121L18.1823 18.8121C13.4177 18.8119 9.22974 18.1326 6.33483 17.1225C4.87382 16.6127 3.90174 16.0736 3.35222 15.6217C2.78202 15.1528 2.99888 15.075 3.00208 15.4423L-2.99769 15.4947ZM18.1822 24.8121C19.9529 24.8121 21.669 24.7267 23.3051 24.5691L22.7297 18.5968C21.2854 18.7359 19.7613 18.8121 18.1822 18.8121L18.1822 24.8121ZM25.9881 22.0009C26.1252 21.0262 26.3664 20.095 26.7258 19.232L21.1871 16.925C20.6055 18.3212 20.2449 19.756 20.0466 21.165L25.9881 22.0009ZM26.7258 19.232C27.2184 18.0494 27.7866 16.783 28.5799 15.5242L23.5037 12.3254C22.44 14.0134 21.7193 15.6472 21.1871 16.925L26.7258 19.232ZM25.5659 10.9628C23.3248 11.3228 20.833 11.5222 18.1842 11.5222V17.5222C21.1277 17.5222 23.939 17.3011 26.5177 16.8868L25.5659 10.9628ZM18.1842 11.5222C13.2377 11.5222 8.88803 10.8331 5.72399 9.72578L3.74209 15.389C7.69751 16.7732 12.7485 17.5222 18.1842 17.5222V11.5222ZM5.72399 9.72578C4.12611 9.16658 2.98812 8.56675 2.19609 7.91143L-1.6288 12.5342C-0.0844093 13.812 1.78025 14.7024 3.74209 15.389L5.72399 9.72578ZM2.19609 7.91143C2.15123 7.87431 2.09699 7.82681 2.02518 7.76124L-2.02079 12.1918C-1.90833 12.2945 -1.77582 12.4126 -1.62881 12.5342L2.19609 7.91143ZM34.3434 7.76124C34.2716 7.82682 34.2173 7.87432 34.1725 7.91142L37.9974 12.5342C38.1444 12.4126 38.2769 12.2945 38.3893 12.1918L34.3434 7.76124ZM34.1725 7.91143C33.8154 8.2069 33.3796 8.49662 32.8499 8.78045L35.6836 14.0691C36.4993 13.6321 37.2802 13.1276 37.9974 12.5342L34.1725 7.91143ZM31.9782 13.3645C32.3137 13.7603 32.7522 14.2166 33.0423 14.5306C33.3758 14.8917 33.6804 15.2377 33.9644 15.6173L38.7683 12.0225C38.3027 11.4003 37.8379 10.8797 37.4493 10.459C37.0173 9.99138 36.7808 9.75105 36.5553 9.48503L31.9782 13.3645ZM39.3664 13.8199V9.97654H33.3664V13.8199H39.3664ZM29.058 11.1287C26.6492 13.4799 25.391 16.1946 24.5103 18.3091L30.049 20.6161C30.8589 18.6719 31.7411 16.8942 33.2489 15.4224L29.058 11.1287ZM24.5103 18.3091C24.2208 19.0042 24.0121 19.7235 23.862 20.4318L29.7317 21.6755C29.8201 21.2581 29.9287 20.9052 30.049 20.6161L24.5103 18.3091ZM27.353 24.0017C28.3531 23.813 29.3054 23.5924 30.2058 23.3445L28.6137 17.5596C27.8778 17.7622 27.0858 17.9462 26.2407 18.1057L27.353 24.0017ZM32.4088 20.5265L32.443 19.149L26.4448 19.0001L26.4107 20.3777L32.4088 20.5265ZM32.4429 19.1544C32.4347 19.4626 32.3081 19.7559 32.0894 19.9733L27.8589 15.7186C26.9841 16.5884 26.4778 17.7615 26.445 18.9947L32.4429 19.1544ZM32.0894 19.9733C31.8708 20.1907 31.5768 20.3156 31.2685 20.322L31.1431 14.3233C29.9098 14.3491 28.7337 14.8488 27.8589 15.7186L32.0894 19.9733ZM31.2685 20.322C30.9603 20.3285 30.6614 20.216 30.4338 20.0079L34.4827 15.58C33.5723 14.7476 32.3764 14.2976 31.1431 14.3233L31.2685 20.322ZM30.4338 20.0079C30.2062 19.7998 30.0675 19.5121 30.0464 19.2045L36.0324 18.7942C35.948 17.5635 35.3931 16.4125 34.4827 15.58L30.4338 20.0079ZM30.046 19.1982L30.0536 19.3129L36.0404 18.9151L36.0328 18.8005L30.046 19.1982ZM34.3797 21.8017C35.1554 21.4171 35.8871 20.9799 36.5392 20.4821L32.8982 15.7131C32.6127 15.9311 32.2233 16.1739 31.7143 16.4263L34.3797 21.8017ZM37.4334 16.8208C37.0894 16.0892 36.6937 15.3609 36.2272 14.6608L31.234 17.9876C31.5052 18.3947 31.7598 18.8552 32.004 19.3744L37.4334 16.8208ZM36.2272 14.6608C35.7876 14.001 35.1885 13.3715 34.8026 12.9534C34.3519 12.4653 33.9521 12.0229 33.5795 11.5107L28.7275 15.0404C29.3251 15.8619 29.937 16.5283 30.3939 17.0233C30.9155 17.5883 31.1199 17.8163 31.234 17.9876L36.2272 14.6608ZM-2.9978 19.0683V24.5763H3.0022V19.0683H-2.9978ZM-2.99769 24.6025C-2.97917 26.723 -1.73457 28.3146 -0.458639 29.3638C0.837961 30.43 2.53037 31.2576 4.35814 31.8953C8.04079 33.1803 12.9275 33.9196 18.1821 33.9198L18.1823 27.9198C13.4177 27.9197 9.22974 27.2404 6.33483 26.2303C4.87382 25.7205 3.90174 25.1813 3.35222 24.7295C2.78202 24.2606 2.99888 24.1828 3.00208 24.5501L-2.99769 24.6025ZM18.1822 33.9198C20.3099 33.9198 22.3611 33.7973 24.2893 33.572L23.5931 27.6126C21.9004 27.8103 20.0818 27.9198 18.1822 27.9198L18.1822 33.9198ZM26.7769 29.6131C26.7696 29.5919 26.7631 29.5736 26.7585 29.5608C26.7545 29.5498 26.7497 29.5365 26.7488 29.5338C26.7468 29.5282 26.7471 29.529 26.7481 29.5318C26.7492 29.535 26.7521 29.5433 26.756 29.5549L21.067 31.4617C21.0834 31.5104 21.0984 31.552 21.1037 31.5669C21.1078 31.5782 21.108 31.5788 21.1091 31.5817C21.1095 31.5829 21.108 31.5787 21.1055 31.5715L26.7769 29.6131ZM26.756 29.555C26.1839 27.848 25.787 25.6879 25.8589 23.5084L19.8622 23.3106C19.7638 26.2926 20.2977 29.1662 21.067 31.4616L26.756 29.555ZM22.5951 20.4213C21.1871 20.5463 19.7099 20.6122 18.1822 20.6122V26.6122C19.8814 26.6122 21.5358 26.539 23.1259 26.3977L22.5951 20.4213ZM18.1822 20.6122C13.2358 20.6122 8.88608 19.9231 5.72204 18.8158L3.74014 24.479C7.69556 25.8633 12.7466 26.6122 18.1822 26.6122V20.6122ZM5.72204 18.8158C4.12416 18.2566 2.98617 17.6568 2.19413 17.0014L-1.63076 21.6242C-0.0863613 22.9021 1.7783 23.7924 3.74014 24.479L5.72204 18.8158ZM2.19414 17.0014C2.14981 16.9648 2.09609 16.9177 2.02471 16.8526L-2.02031 21.284C-1.90869 21.3859 -1.77695 21.5033 -1.63076 21.6242L2.19414 17.0014ZM33.7173 17.3434C33.2405 17.6738 32.6629 17.9916 31.9677 18.2974L34.3834 23.7896C35.352 23.3636 36.28 22.8674 37.135 22.2749L33.7173 17.3434ZM30.1822 21.2429L30.6398 28.1113L36.6265 27.7124L36.1689 20.8441L30.1822 21.2429ZM35.1046 30.5262C37.0338 29.4404 39.3643 27.5181 39.3644 24.5571L33.3644 24.5568C33.3644 24.3075 33.4773 24.2484 33.3376 24.417C33.1803 24.6068 32.8283 24.9223 32.1617 25.2975L35.1046 30.5262ZM33.3644 24.557V25.5152H39.3644V24.557H33.3644ZM39.3604 25.6707C39.3599 25.6803 39.3594 25.6874 39.3593 25.6903C39.3591 25.6926 39.359 25.6945 39.3593 25.6902C39.3595 25.6875 39.36 25.6795 39.3605 25.6703C39.3611 25.6606 39.3619 25.6468 39.3627 25.6305L33.37 25.3342C33.3706 25.3233 33.371 25.315 33.3713 25.3108C33.3715 25.3071 33.3717 25.3045 33.3715 25.3073C33.3715 25.3081 33.3713 25.3106 33.3712 25.313C33.371 25.3156 33.3708 25.3193 33.3705 25.3236C33.37 25.332 33.3692 25.3446 33.3684 25.3597L39.3604 25.6707ZM39.3664 25.4824V24.2132H33.3664V25.4824H39.3664ZM39.3626 24.0624C39.2798 22.4186 38.9565 20.82 38.4179 19.2662L32.7488 21.2313C33.1115 22.2778 33.3174 23.3172 33.3702 24.3641L39.3626 24.0624ZM38.4179 19.2663C38.3587 19.0954 38.2995 18.9315 38.2439 18.7795L32.6084 20.8388C32.6593 20.9781 32.7055 21.1063 32.7488 21.2313L38.4179 19.2663ZM28.6153 19.424C27.8074 19.632 26.9448 19.8167 26.0331 19.975L27.0591 25.8866C28.1168 25.703 29.1368 25.4854 30.1112 25.2345L28.6153 19.424ZM23.5523 22.7372C23.3801 25.3995 23.7783 28.223 24.4803 30.3177L30.1693 28.4111C29.7213 27.0745 29.4165 25.0314 29.5398 23.1244L23.5523 22.7372ZM24.4803 30.3177C24.6109 30.7073 24.7763 31.0697 24.9449 31.3916L30.2606 28.609C30.1975 28.4884 30.1737 28.4241 30.1693 28.4111L24.4803 30.3177ZM28.226 32.9348C28.8242 32.8078 29.4 32.6691 29.9548 32.5213L28.4104 26.7235C27.9512 26.8458 27.4748 26.9606 26.9794 27.0658L28.226 32.9348ZM32.1817 29.6967L32.3623 22.4035L26.3642 22.2549L26.1835 29.5481L32.1817 29.6967ZM-2.9978 28.1761V33.6153H3.0022V28.1761H-2.9978ZM-2.96307 33.1601C-2.96609 33.1798 -2.96836 33.1958 -2.96949 33.2038C-2.97005 33.2078 -2.97054 33.2113 -2.97069 33.2124C-2.97095 33.2143 -2.97082 33.2133 -2.97066 33.2122L2.97115 34.0458C2.97162 34.0424 2.97207 34.0392 2.97213 34.0387C2.9723 34.0376 2.97213 34.0388 2.97188 34.0406C2.97139 34.044 2.96978 34.0554 2.96746 34.0705L-2.96307 33.1601ZM-2.99976 33.6292C-2.99963 35.7586 -1.75941 37.3613 -0.483231 38.4172C0.81207 39.4889 2.50594 40.3198 4.3348 40.9599C8.02025 42.2496 12.9162 42.9919 18.1822 42.9919L18.1822 36.9919C13.4068 36.9919 9.2118 36.3098 6.31668 35.2966C4.85526 34.7852 3.88643 34.2451 3.34158 33.7943C2.77761 33.3277 3.00022 33.2565 3.00024 33.6288L-2.99976 33.6292ZM18.1822 42.9919C22.5905 42.9919 26.7146 42.4707 30.0854 41.5574L28.5162 35.7662C25.7383 36.5189 22.152 36.9919 18.1822 36.9919L18.1822 42.9919ZM32.2971 38.514C32.2967 38.5056 32.2965 38.4995 32.2952 38.4693C32.2942 38.444 32.2924 38.403 32.2898 38.3554L26.2993 38.6928C26.2993 38.6928 26.2993 38.6943 26.2995 38.6981C26.2997 38.7023 26.3 38.7079 26.3004 38.7176C26.301 38.7324 26.3025 38.7709 26.3044 38.8096L32.2971 38.514ZM32.2898 38.3554C32.2611 37.8467 32.1909 37.3579 32.1475 37.0667L26.213 37.9511C26.2534 38.222 26.2872 38.4785 26.2993 38.6928L32.2898 38.3554ZM31.084 35.1903C30.2897 34.5381 28.4625 32.916 27.3423 30.8735L22.0816 33.7588C23.7694 36.8361 26.3294 39.0498 27.2765 39.8275L31.084 35.1903ZM24.3282 29.3408C22.4187 29.587 20.3522 29.72 18.1822 29.72V35.72C20.594 35.72 22.9173 35.5724 25.0956 35.2915L24.3282 29.3408ZM18.1822 29.72C13.2358 29.72 8.88608 29.0309 5.72204 27.9236L3.74014 33.5868C7.69556 34.971 12.7466 35.72 18.1822 35.72V29.72ZM5.72204 27.9236C4.12416 27.3644 2.98617 26.7646 2.19413 26.1092L-1.63076 30.732C-0.0863613 32.0099 1.7783 32.9002 3.74014 33.5868L5.72204 27.9236ZM2.19412 26.1092C2.14981 26.0726 2.09609 26.0255 2.02472 25.9604L-2.02033 30.3918C-1.9087 30.4937 -1.77695 30.6111 -1.63075 30.732L2.19412 26.1092ZM34.042 26.212C33.6161 26.5457 33.0921 26.8692 32.4503 27.1819L35.0781 32.5758C36.0222 32.1159 36.9219 31.578 37.7427 30.9347L34.042 26.212ZM30.7709 30.0782L30.9361 32.5592L36.9228 32.1605L36.7576 29.6795L30.7709 30.0782ZM36.3112 34.1839C36.7721 33.5821 37.3598 32.7728 37.7535 31.9585L32.3515 29.3472C32.2436 29.5704 31.9829 29.9675 31.5477 30.5358L36.3112 34.1839ZM37.7535 31.9585C38.1261 31.1877 38.5446 30.2789 38.7927 29.34L32.992 27.8067C32.9047 28.1368 32.7167 28.5917 32.3515 29.3472L37.7535 31.9585ZM28.4092 28.5833C28.2483 28.6234 28.1203 28.6556 27.9905 28.6861L29.361 34.5274C29.5422 34.4849 29.7186 34.4405 29.863 34.4045L28.4092 28.5833ZM26.3086 33.4498C26.4684 33.6549 26.6378 33.867 26.8165 34.0812L31.4229 30.2366C31.2975 30.0863 31.1715 29.9289 31.0429 29.7637L26.3086 33.4498ZM32.1188 32.2329L32.1352 31.5678L26.137 31.4199L26.1206 32.0849L32.1188 32.2329Z" fill="url(#paint0_linear_511_43242)" mask="url(#path-1-inside-1_511_43242)"/>
<path d="M18.1842 -0.00390625L18.1854 -3.00391H18.1842L18.1842 -0.00390625ZM0.00219726 6.35916L-2.9978 6.35928V6.35933L0.00219726 6.35916ZM18.1842 12.722L18.1842 9.72204H18.1842L18.1842 12.722ZM27.597 11.8041L28.2197 14.7387L29.217 14.5271L29.8789 13.7517L27.597 11.8041ZM29.2789 10.0974L31.257 12.3529L27.4623 7.70994L29.2789 10.0974ZM29.4156 9.87009L26.5603 8.94952L26.5603 8.94952L29.4156 9.87009ZM29.5164 9.48865L32.4585 10.0751L32.4607 10.0639L32.4629 10.0527L29.5164 9.48865ZM31.3541 8.0283L31.238 11.0261L31.2381 11.0261L31.3541 8.0283ZM32.9193 9.07341V12.0734H37.6059L35.6437 7.81734L32.9193 9.07341ZM33.323 9.88396L30.6471 11.2402L32.0229 13.9547L34.7174 12.5402L33.323 9.88396ZM36.3664 6.35916L39.3664 6.35931L39.3664 6.27592L39.3617 6.19266L36.3664 6.35916ZM36.3109 5.97108L33.3557 6.4877L33.3696 6.56686L33.3876 6.64516L36.3109 5.97108ZM36.1707 5.48104L33.3834 6.59067L33.3837 6.59133L36.1707 5.48104ZM29.2894 10.0883L27.3133 7.83109L31.249 12.3599L29.2894 10.0883ZM0.00219726 9.97654L2.02518 7.76124L-2.9978 3.17431V9.97654H0.00219726ZM0.00219726 15.4685H-2.9978V15.4816L-2.99769 15.4947L0.00219726 15.4685ZM18.1822 21.8121L18.1821 24.8121H18.1822L18.1822 21.8121ZM23.0174 21.583L23.3051 24.5691L25.6587 24.3424L25.9881 22.0009L23.0174 21.583ZM23.9564 18.0785L21.1871 16.925L21.1871 16.925L23.9564 18.0785ZM26.0418 13.9248L28.5799 15.5242L32.1176 9.91009L25.5659 10.9628L26.0418 13.9248ZM0.283642 10.2228L-1.62881 12.5342L-1.6288 12.5342L0.283642 10.2228ZM36.3664 9.97654H39.3664V3.17431L34.3434 7.76124L36.3664 9.97654ZM36.0849 10.2228L34.1725 7.91142L34.1725 7.91143L36.0849 10.2228ZM34.2668 11.4248L32.8499 8.78045L29.5785 10.5333L31.9782 13.3645L34.2668 11.4248ZM36.3664 13.8199L33.9644 15.6173L39.3664 22.8363V13.8199H36.3664ZM31.1535 13.2756L33.5795 11.5107L31.5395 8.70658L29.058 11.1287L31.1535 13.2756ZM27.2797 19.4626L24.5103 18.3091L24.5103 18.3091L27.2797 19.4626ZM26.7969 21.0537L23.862 20.4318L22.9287 24.8363L27.353 24.0017L26.7969 21.0537ZM29.4097 20.4521L30.2058 23.3445L32.3536 22.7534L32.4088 20.5265L29.4097 20.4521ZM29.4439 19.0746L26.445 18.9947L26.4448 19.0001L29.4439 19.0746ZM33.0394 18.9994L36.0328 18.8005L36.0324 18.7942L33.0394 18.9994ZM33.047 19.114L30.0536 19.3129L30.3517 23.799L34.3797 21.8017L33.047 19.114ZM34.7187 18.0976L36.5392 20.4821L38.4642 19.0124L37.4334 16.8208L34.7187 18.0976ZM33.7306 16.3242L36.2272 14.6608V14.6608L33.7306 16.3242ZM0.00219726 19.0683L2.02471 16.8526L-2.9978 12.268V19.0683H0.00219726ZM0.00219726 24.5763H-2.9978V24.5894L-2.99769 24.6025L0.00219726 24.5763ZM18.1822 30.9198L18.1821 33.9198H18.1822L18.1822 30.9198ZM23.9412 30.5923L24.2893 33.572L27.9945 33.1392L26.7769 29.6131L23.9412 30.5923ZM23.9115 30.5083L21.067 31.4616L21.067 31.4617L23.9115 30.5083ZM22.8605 23.4095L25.8589 23.5084L25.9707 20.1215L22.5951 20.4213L22.8605 23.4095ZM4.73109 21.6474L3.74014 24.479H3.74014L4.73109 21.6474ZM0.281689 19.3128L-1.63076 21.6242L-1.63076 21.6242L0.281689 19.3128ZM35.4261 19.8091L38.2439 18.7795L36.9105 15.1304L33.7173 17.3434L35.4261 19.8091ZM33.1756 21.0435L31.9677 18.2974L30.0424 19.1442L30.1822 21.2429L33.1756 21.0435ZM33.6332 27.9118L30.6398 28.1113L30.9563 32.861L35.1046 30.5262L33.6332 27.9118ZM36.3644 24.557H39.3644L33.3644 24.5568L36.3644 24.557ZM36.3644 25.5152H33.3644L39.3604 25.6707L36.3644 25.5152ZM36.3664 25.4824L39.3627 25.6305L39.3664 25.5565V25.4824H36.3664ZM36.3664 24.2132H39.3664V24.1377L39.3626 24.0624L36.3664 24.2132ZM35.5834 20.2488L32.7488 21.2313L32.7488 21.2313L35.5834 20.2488ZM29.3633 22.3292L32.3623 22.4035L32.4607 18.434L28.6153 19.424L29.3633 22.3292ZM26.5461 22.9308L26.0331 19.975L23.7049 20.3791L23.5523 22.7372L26.5461 22.9308ZM27.3248 29.3644L30.1693 28.4111L30.1693 28.4111L27.3248 29.3644ZM27.6027 30.0003L24.9449 31.3916L26.0002 33.4076L28.226 32.9348L27.6027 30.0003ZM29.1826 29.6224L29.9548 32.5213L32.126 31.9429L32.1817 29.6967L29.1826 29.6224ZM0.00219726 28.1761L2.02472 25.9604L-2.9978 21.3758V28.1761H0.00219726ZM0.00219726 33.6153L2.96746 34.0705L3.0022 33.8443V33.6153H0.00219726ZM0.000244141 33.629L-2.97066 33.2122L-2.99977 33.4197L-2.99976 33.6292L0.000244141 33.629ZM18.1822 39.9919L18.1822 42.9919H18.1822L18.1822 39.9919ZM29.3008 38.6618L30.0854 41.5574L32.4161 40.9258L32.2971 38.514L29.3008 38.6618ZM29.2945 38.5241L26.2993 38.6928L26.2993 38.6928L29.2945 38.5241ZM29.1802 37.5089L32.1475 37.0667L31.9771 35.9236L31.084 35.1903L29.1802 37.5089ZM24.7119 32.3161L27.3423 30.8735L26.3581 29.079L24.3282 29.3408L24.7119 32.3161ZM4.73109 30.7552L5.72204 27.9236L5.72204 27.9236L4.73109 30.7552ZM0.281689 28.4206L2.19413 26.1092L2.19412 26.1092L0.281689 28.4206ZM35.8923 28.5734L38.7927 29.34L41.0766 20.6997L34.042 26.212L35.8923 28.5734ZM33.7642 29.8788L32.4503 27.1819L30.6368 28.0654L30.7709 30.0782L33.7642 29.8788ZM33.9295 32.3599L30.9361 32.5592L31.4657 40.5111L36.3112 34.1839L33.9295 32.3599ZM35.0525 30.6528L32.3515 29.3472V29.3472L35.0525 30.6528ZM29.1361 31.4939L32.1352 31.5678L32.2324 27.6284L28.4092 28.5833L29.1361 31.4939ZM28.6758 31.6068L27.9905 28.6861L23.4323 29.7555L26.3086 33.4498L28.6758 31.6068ZM29.1197 32.1589L26.8165 34.0812L31.9223 40.1989L32.1188 32.2329L29.1197 32.1589ZM18.1842 -3.00391C12.918 -3.0039 8.02199 -2.26159 4.33652 -0.971801C2.50764 -0.331758 0.81376 0.49926 -0.481526 1.57101C-1.75771 2.62695 -2.99789 4.22978 -2.9978 6.35928L3.0022 6.35904C3.00221 6.73144 2.77953 6.66033 3.34343 6.19375C3.88823 5.74297 4.85703 5.20286 6.31845 4.69141C9.21357 3.67822 13.4086 2.9961 18.1842 2.99609L18.1842 -3.00391ZM-2.9978 6.35933C-2.99768 8.48873 -1.75746 10.0914 -0.481279 11.1473C0.814022 12.219 2.50789 13.05 4.33676 13.69C8.0222 14.9798 12.9181 15.722 18.1842 15.722L18.1842 9.72204C13.4087 9.72203 9.21375 9.03994 6.31863 8.02678C4.85722 7.51535 3.88839 6.97525 3.34353 6.52446C2.77956 6.05784 3.00218 5.98666 3.0022 6.35899L-2.9978 6.35933ZM18.1842 15.722C21.8156 15.722 25.2475 15.3694 28.2197 14.7387L26.9744 8.8694C24.4549 9.40396 21.4438 9.72205 18.1842 9.72204L18.1842 15.722ZM29.8789 13.7517C30.2905 13.2695 30.7467 12.8004 31.257 12.3529L27.3008 7.84197C26.5596 8.49196 25.9018 9.16914 25.3152 9.85647L29.8789 13.7517ZM27.4623 7.70994C27.4871 7.69108 27.5967 7.60721 27.7484 7.51732C27.814 7.47847 27.9991 7.37077 28.2557 7.27785C28.3851 7.23101 28.6236 7.15408 28.9337 7.11837C29.2217 7.0852 29.8014 7.06004 30.4569 7.34053C31.2193 7.66673 31.7872 8.28064 32.0709 9.00659C32.3136 9.62735 32.2877 10.1666 32.2583 10.4304C32.202 10.9368 32.0262 11.3015 31.9911 11.376C31.8822 11.6073 31.7658 11.7732 31.7519 11.7934C31.6688 11.9146 31.5715 12.0311 31.6212 11.9695C31.6293 11.9595 31.6832 11.8934 31.7448 11.8094C31.8349 11.6863 32.1016 11.3157 32.2709 10.7907L26.5603 8.94952C26.6893 8.54936 26.878 8.29978 26.9051 8.26282C26.9352 8.22182 26.9612 8.19008 26.9517 8.20178C26.9513 8.20235 26.9388 8.21779 26.9251 8.23517C26.9237 8.23686 26.8665 8.30835 26.8033 8.40052C26.7887 8.42181 26.6717 8.58853 26.5626 8.82034C26.5274 8.89509 26.3516 9.26009 26.2952 9.76658C26.2658 10.0305 26.2399 10.5698 26.4826 11.1906C26.7663 11.9166 27.3342 12.5306 28.0967 12.8568C28.7523 13.1373 29.332 13.1122 29.6201 13.079C29.9303 13.0433 30.1689 12.9663 30.2984 12.9194C30.5553 12.8264 30.7406 12.7186 30.8065 12.6795C30.9589 12.5892 31.0695 12.5047 31.0954 12.4849L27.4623 7.70994ZM32.2709 10.7907C32.3322 10.6005 32.3766 10.4308 32.4052 10.3134C32.42 10.2526 32.4318 10.2007 32.4405 10.1607C32.4449 10.1406 32.4486 10.1232 32.4516 10.1089C32.4531 10.1017 32.4544 10.0953 32.4556 10.0896C32.4561 10.0868 32.4567 10.0842 32.4572 10.0818C32.4574 10.0806 32.4576 10.0794 32.4579 10.0783C32.458 10.0777 32.4581 10.0772 32.4582 10.0767C32.4582 10.0764 32.4583 10.0761 32.4583 10.0759C32.4584 10.0757 32.4584 10.0755 32.4584 10.0755C32.4585 10.0753 32.4585 10.0751 29.5164 9.48865C26.5743 8.90219 26.5743 8.902 26.5743 8.90181C26.5743 8.90175 26.5744 8.90156 26.5744 8.90144C26.5745 8.90119 26.5745 8.90094 26.5746 8.9007C26.5747 8.90021 26.5748 8.89974 26.5748 8.89927C26.575 8.89833 26.5752 8.89743 26.5754 8.89657C26.5757 8.89484 26.5761 8.89325 26.5764 8.8918C26.5769 8.88891 26.5774 8.88656 26.5778 8.88472C26.5786 8.88105 26.579 8.87932 26.579 8.87926C26.579 8.87921 26.5787 8.88067 26.578 8.88339C26.5774 8.88612 26.5765 8.88992 26.5754 8.89454C26.5698 8.91755 26.5638 8.93862 26.5603 8.94952L32.2709 10.7907ZM32.4629 10.0527C32.4089 10.3347 32.2556 10.5879 32.0309 10.7665L28.298 6.06906C27.399 6.78353 26.7858 7.79665 26.5699 8.92457L32.4629 10.0527ZM32.0309 10.7665C31.8062 10.9451 31.5249 11.0372 31.238 11.0261L31.4701 5.03054C30.3226 4.98613 29.1971 5.35459 28.298 6.06906L32.0309 10.7665ZM31.2381 11.0261C31.0169 11.0175 30.8024 10.9479 30.6182 10.825L33.95 5.83506C33.2134 5.34321 32.3551 5.06477 31.47 5.03054L31.2381 11.0261ZM30.6182 10.825C30.4341 10.702 30.2876 10.5305 30.1949 10.3295L35.6437 7.81734C35.2728 7.01298 34.6867 6.32691 33.95 5.83506L30.6182 10.825ZM32.9193 9.07341C30.2236 10.3899 30.2236 10.39 30.2236 10.39C30.2236 10.39 30.2236 10.39 30.2237 10.39C30.2237 10.3901 30.2237 10.3901 30.2237 10.3902C30.2238 10.3903 30.2238 10.3904 30.2239 10.3906C30.2241 10.3909 30.2243 10.3913 30.2245 10.3918C30.225 10.3927 30.2256 10.3941 30.2265 10.3958C30.2281 10.3992 30.2305 10.404 30.2335 10.4102C30.2396 10.4226 30.2483 10.4404 30.2594 10.4629C30.2815 10.5079 30.313 10.572 30.3515 10.6497C30.4282 10.8046 30.5335 11.0162 30.6471 11.2402L35.999 8.52773C35.8966 8.32577 35.8001 8.1321 35.7289 7.98817C35.6934 7.91648 35.6645 7.85779 35.6447 7.81739C35.6347 7.7972 35.6271 7.78162 35.622 7.7713C35.6195 7.76615 35.6176 7.76231 35.6165 7.75988C35.6159 7.75867 35.6154 7.7578 35.6152 7.7573C35.6151 7.75705 35.615 7.75689 35.615 7.75682C35.6149 7.75679 35.6149 7.75677 35.6149 7.75679C35.6149 7.75679 35.615 7.7568 35.615 7.75682C35.615 7.75683 35.615 7.75685 35.615 7.75685C35.615 7.75687 35.615 7.75689 32.9193 9.07341ZM34.7174 12.5402C36.7887 11.4529 39.3662 9.48161 39.3664 6.35931L33.3664 6.35902C33.3664 6.09238 33.4934 6.04534 33.3124 6.25123C33.1145 6.47639 32.6928 6.82653 31.9286 7.22771L34.7174 12.5402ZM39.3617 6.19266C39.3448 5.8887 39.3016 5.58951 39.2342 5.297L33.3876 6.64516C33.3797 6.61091 33.3735 6.57057 33.371 6.52566L39.3617 6.19266ZM39.2661 5.45446C39.2001 5.07711 39.0948 4.71503 38.9576 4.37075L33.3837 6.59133C33.3761 6.57235 33.3644 6.53721 33.3557 6.4877L39.2661 5.45446ZM38.9579 4.37141C38.3157 2.75817 37.0135 1.59443 35.7204 0.769758C34.3835 -0.0828246 32.7518 -0.768142 30.9825 -1.3077C27.4354 -2.38936 22.948 -3.00192 18.1854 -3.00391L18.1829 2.99609C22.4844 2.99788 26.3648 3.55694 29.2323 4.43139C30.6703 4.86988 31.7575 5.35874 32.4941 5.82853C33.2745 6.32623 33.4003 6.63306 33.3834 6.59067L38.9579 4.37141ZM27.5771 7.60332C27.4935 7.67385 27.4302 7.72854 27.3819 7.77071C27.358 7.79159 27.3392 7.80819 27.3267 7.81927C27.3196 7.82558 27.3177 7.82724 27.3159 7.82878C27.3136 7.8308 27.3201 7.8251 27.3299 7.81663L31.249 12.3599C31.2642 12.3467 31.2773 12.3352 31.283 12.3301C31.2893 12.3246 31.2968 12.318 31.3006 12.3146C31.31 12.3063 31.3192 12.2982 31.3308 12.2881C31.3534 12.2683 31.3906 12.2361 31.4475 12.188L27.5771 7.60332ZM31.2656 12.3454C31.3396 12.2806 31.395 12.2324 31.4475 12.188L27.577 7.60332C27.4786 7.68644 27.3864 7.76703 27.3133 7.83109L31.2656 12.3454ZM-2.9978 9.97654V15.4685H3.0022V9.97654H-2.9978ZM-2.99769 15.4947C-2.97917 17.6152 -1.73457 19.2068 -0.458638 20.256C0.837962 21.3222 2.53037 22.1498 4.35814 22.7875C8.04079 24.0725 12.9275 24.8119 18.1821 24.8121L18.1823 18.8121C13.4177 18.8119 9.22974 18.1326 6.33483 17.1225C4.87382 16.6127 3.90174 16.0736 3.35222 15.6217C2.78202 15.1528 2.99888 15.075 3.00208 15.4423L-2.99769 15.4947ZM18.1822 24.8121C19.9529 24.8121 21.669 24.7267 23.3051 24.5691L22.7297 18.5968C21.2854 18.7359 19.7613 18.8121 18.1822 18.8121L18.1822 24.8121ZM25.9881 22.0009C26.1252 21.0262 26.3664 20.095 26.7258 19.232L21.1871 16.925C20.6055 18.3212 20.2449 19.756 20.0466 21.165L25.9881 22.0009ZM26.7258 19.232C27.2184 18.0494 27.7866 16.783 28.5799 15.5242L23.5037 12.3254C22.44 14.0134 21.7193 15.6472 21.1871 16.925L26.7258 19.232ZM25.5659 10.9628C23.3248 11.3228 20.833 11.5222 18.1842 11.5222V17.5222C21.1277 17.5222 23.939 17.3011 26.5177 16.8868L25.5659 10.9628ZM18.1842 11.5222C13.2377 11.5222 8.88803 10.8331 5.72399 9.72578L3.74209 15.389C7.69751 16.7732 12.7485 17.5222 18.1842 17.5222V11.5222ZM5.72399 9.72578C4.12611 9.16658 2.98812 8.56675 2.19609 7.91143L-1.6288 12.5342C-0.0844093 13.812 1.78025 14.7024 3.74209 15.389L5.72399 9.72578ZM2.19609 7.91143C2.15123 7.87431 2.09699 7.82681 2.02518 7.76124L-2.02079 12.1918C-1.90833 12.2945 -1.77582 12.4126 -1.62881 12.5342L2.19609 7.91143ZM34.3434 7.76124C34.2716 7.82682 34.2173 7.87432 34.1725 7.91142L37.9974 12.5342C38.1444 12.4126 38.2769 12.2945 38.3893 12.1918L34.3434 7.76124ZM34.1725 7.91143C33.8154 8.2069 33.3796 8.49662 32.8499 8.78045L35.6836 14.0691C36.4993 13.6321 37.2802 13.1276 37.9974 12.5342L34.1725 7.91143ZM31.9782 13.3645C32.3137 13.7603 32.7522 14.2166 33.0423 14.5306C33.3758 14.8917 33.6804 15.2377 33.9644 15.6173L38.7683 12.0225C38.3027 11.4003 37.8379 10.8797 37.4493 10.459C37.0173 9.99138 36.7808 9.75105 36.5553 9.48503L31.9782 13.3645ZM39.3664 13.8199V9.97654H33.3664V13.8199H39.3664ZM29.058 11.1287C26.6492 13.4799 25.391 16.1946 24.5103 18.3091L30.049 20.6161C30.8589 18.6719 31.7411 16.8942 33.2489 15.4224L29.058 11.1287ZM24.5103 18.3091C24.2208 19.0042 24.0121 19.7235 23.862 20.4318L29.7317 21.6755C29.8201 21.2581 29.9287 20.9052 30.049 20.6161L24.5103 18.3091ZM27.353 24.0017C28.3531 23.813 29.3054 23.5924 30.2058 23.3445L28.6137 17.5596C27.8778 17.7622 27.0858 17.9462 26.2407 18.1057L27.353 24.0017ZM32.4088 20.5265L32.443 19.149L26.4448 19.0001L26.4107 20.3777L32.4088 20.5265ZM32.4429 19.1544C32.4347 19.4626 32.3081 19.7559 32.0894 19.9733L27.8589 15.7186C26.9841 16.5884 26.4778 17.7615 26.445 18.9947L32.4429 19.1544ZM32.0894 19.9733C31.8708 20.1907 31.5768 20.3156 31.2685 20.322L31.1431 14.3233C29.9098 14.3491 28.7337 14.8488 27.8589 15.7186L32.0894 19.9733ZM31.2685 20.322C30.9603 20.3285 30.6614 20.216 30.4338 20.0079L34.4827 15.58C33.5723 14.7476 32.3764 14.2976 31.1431 14.3233L31.2685 20.322ZM30.4338 20.0079C30.2062 19.7998 30.0675 19.5121 30.0464 19.2045L36.0324 18.7942C35.948 17.5635 35.3931 16.4125 34.4827 15.58L30.4338 20.0079ZM30.046 19.1982L30.0536 19.3129L36.0404 18.9151L36.0328 18.8005L30.046 19.1982ZM34.3797 21.8017C35.1554 21.4171 35.8871 20.9799 36.5392 20.4821L32.8982 15.7131C32.6127 15.9311 32.2233 16.1739 31.7143 16.4263L34.3797 21.8017ZM37.4334 16.8208C37.0894 16.0892 36.6937 15.3609 36.2272 14.6608L31.234 17.9876C31.5052 18.3947 31.7598 18.8552 32.004 19.3744L37.4334 16.8208ZM36.2272 14.6608C35.7876 14.001 35.1885 13.3715 34.8026 12.9534C34.3519 12.4653 33.9521 12.0229 33.5795 11.5107L28.7275 15.0404C29.3251 15.8619 29.937 16.5283 30.3939 17.0233C30.9155 17.5883 31.1199 17.8163 31.234 17.9876L36.2272 14.6608ZM-2.9978 19.0683V24.5763H3.0022V19.0683H-2.9978ZM-2.99769 24.6025C-2.97917 26.723 -1.73457 28.3146 -0.458639 29.3638C0.837961 30.43 2.53037 31.2576 4.35814 31.8953C8.04079 33.1803 12.9275 33.9196 18.1821 33.9198L18.1823 27.9198C13.4177 27.9197 9.22974 27.2404 6.33483 26.2303C4.87382 25.7205 3.90174 25.1813 3.35222 24.7295C2.78202 24.2606 2.99888 24.1828 3.00208 24.5501L-2.99769 24.6025ZM18.1822 33.9198C20.3099 33.9198 22.3611 33.7973 24.2893 33.572L23.5931 27.6126C21.9004 27.8103 20.0818 27.9198 18.1822 27.9198L18.1822 33.9198ZM26.7769 29.6131C26.7696 29.5919 26.7631 29.5736 26.7585 29.5608C26.7545 29.5498 26.7497 29.5365 26.7488 29.5338C26.7468 29.5282 26.7471 29.529 26.7481 29.5318C26.7492 29.535 26.7521 29.5433 26.756 29.5549L21.067 31.4617C21.0834 31.5104 21.0984 31.552 21.1037 31.5669C21.1078 31.5782 21.108 31.5788 21.1091 31.5817C21.1095 31.5829 21.108 31.5787 21.1055 31.5715L26.7769 29.6131ZM26.756 29.555C26.1839 27.848 25.787 25.6879 25.8589 23.5084L19.8622 23.3106C19.7638 26.2926 20.2977 29.1662 21.067 31.4616L26.756 29.555ZM22.5951 20.4213C21.1871 20.5463 19.7099 20.6122 18.1822 20.6122V26.6122C19.8814 26.6122 21.5358 26.539 23.1259 26.3977L22.5951 20.4213ZM18.1822 20.6122C13.2358 20.6122 8.88608 19.9231 5.72204 18.8158L3.74014 24.479C7.69556 25.8633 12.7466 26.6122 18.1822 26.6122V20.6122ZM5.72204 18.8158C4.12416 18.2566 2.98617 17.6568 2.19413 17.0014L-1.63076 21.6242C-0.0863613 22.9021 1.7783 23.7924 3.74014 24.479L5.72204 18.8158ZM2.19414 17.0014C2.14981 16.9648 2.09609 16.9177 2.02471 16.8526L-2.02031 21.284C-1.90869 21.3859 -1.77695 21.5033 -1.63076 21.6242L2.19414 17.0014ZM33.7173 17.3434C33.2405 17.6738 32.6629 17.9916 31.9677 18.2974L34.3834 23.7896C35.352 23.3636 36.28 22.8674 37.135 22.2749L33.7173 17.3434ZM30.1822 21.2429L30.6398 28.1113L36.6265 27.7124L36.1689 20.8441L30.1822 21.2429ZM35.1046 30.5262C37.0338 29.4404 39.3643 27.5181 39.3644 24.5571L33.3644 24.5568C33.3644 24.3075 33.4773 24.2484 33.3376 24.417C33.1803 24.6068 32.8283 24.9223 32.1617 25.2975L35.1046 30.5262ZM33.3644 24.557V25.5152H39.3644V24.557H33.3644ZM39.3604 25.6707C39.3599 25.6803 39.3594 25.6874 39.3593 25.6903C39.3591 25.6926 39.359 25.6945 39.3593 25.6902C39.3595 25.6875 39.36 25.6795 39.3605 25.6703C39.3611 25.6606 39.3619 25.6468 39.3627 25.6305L33.37 25.3342C33.3706 25.3233 33.371 25.315 33.3713 25.3108C33.3715 25.3071 33.3717 25.3045 33.3715 25.3073C33.3715 25.3081 33.3713 25.3106 33.3712 25.313C33.371 25.3156 33.3708 25.3193 33.3705 25.3236C33.37 25.332 33.3692 25.3446 33.3684 25.3597L39.3604 25.6707ZM39.3664 25.4824V24.2132H33.3664V25.4824H39.3664ZM39.3626 24.0624C39.2798 22.4186 38.9565 20.82 38.4179 19.2662L32.7488 21.2313C33.1115 22.2778 33.3174 23.3172 33.3702 24.3641L39.3626 24.0624ZM38.4179 19.2663C38.3587 19.0954 38.2995 18.9315 38.2439 18.7795L32.6084 20.8388C32.6593 20.9781 32.7055 21.1063 32.7488 21.2313L38.4179 19.2663ZM28.6153 19.424C27.8074 19.632 26.9448 19.8167 26.0331 19.975L27.0591 25.8866C28.1168 25.703 29.1368 25.4854 30.1112 25.2345L28.6153 19.424ZM23.5523 22.7372C23.3801 25.3995 23.7783 28.223 24.4803 30.3177L30.1693 28.4111C29.7213 27.0745 29.4165 25.0314 29.5398 23.1244L23.5523 22.7372ZM24.4803 30.3177C24.6109 30.7073 24.7763 31.0697 24.9449 31.3916L30.2606 28.609C30.1975 28.4884 30.1737 28.4241 30.1693 28.4111L24.4803 30.3177ZM28.226 32.9348C28.8242 32.8078 29.4 32.6691 29.9548 32.5213L28.4104 26.7235C27.9512 26.8458 27.4748 26.9606 26.9794 27.0658L28.226 32.9348ZM32.1817 29.6967L32.3623 22.4035L26.3642 22.2549L26.1835 29.5481L32.1817 29.6967ZM-2.9978 28.1761V33.6153H3.0022V28.1761H-2.9978ZM-2.96307 33.1601C-2.96609 33.1798 -2.96836 33.1958 -2.96949 33.2038C-2.97005 33.2078 -2.97054 33.2113 -2.97069 33.2124C-2.97095 33.2143 -2.97082 33.2133 -2.97066 33.2122L2.97115 34.0458C2.97162 34.0424 2.97207 34.0392 2.97213 34.0387C2.9723 34.0376 2.97213 34.0388 2.97188 34.0406C2.97139 34.044 2.96978 34.0554 2.96746 34.0705L-2.96307 33.1601ZM-2.99976 33.6292C-2.99963 35.7586 -1.75941 37.3613 -0.483231 38.4172C0.81207 39.4889 2.50594 40.3198 4.3348 40.9599C8.02025 42.2496 12.9162 42.9919 18.1822 42.9919L18.1822 36.9919C13.4068 36.9919 9.2118 36.3098 6.31668 35.2966C4.85526 34.7852 3.88643 34.2451 3.34158 33.7943C2.77761 33.3277 3.00022 33.2565 3.00024 33.6288L-2.99976 33.6292ZM18.1822 42.9919C22.5905 42.9919 26.7146 42.4707 30.0854 41.5574L28.5162 35.7662C25.7383 36.5189 22.152 36.9919 18.1822 36.9919L18.1822 42.9919ZM32.2971 38.514C32.2967 38.5056 32.2965 38.4995 32.2952 38.4693C32.2942 38.444 32.2924 38.403 32.2898 38.3554L26.2993 38.6928C26.2993 38.6928 26.2993 38.6943 26.2995 38.6981C26.2997 38.7023 26.3 38.7079 26.3004 38.7176C26.301 38.7324 26.3025 38.7709 26.3044 38.8096L32.2971 38.514ZM32.2898 38.3554C32.2611 37.8467 32.1909 37.3579 32.1475 37.0667L26.213 37.9511C26.2534 38.222 26.2872 38.4785 26.2993 38.6928L32.2898 38.3554ZM31.084 35.1903C30.2897 34.5381 28.4625 32.916 27.3423 30.8735L22.0816 33.7588C23.7694 36.8361 26.3294 39.0498 27.2765 39.8275L31.084 35.1903ZM24.3282 29.3408C22.4187 29.587 20.3522 29.72 18.1822 29.72V35.72C20.594 35.72 22.9173 35.5724 25.0956 35.2915L24.3282 29.3408ZM18.1822 29.72C13.2358 29.72 8.88608 29.0309 5.72204 27.9236L3.74014 33.5868C7.69556 34.971 12.7466 35.72 18.1822 35.72V29.72ZM5.72204 27.9236C4.12416 27.3644 2.98617 26.7646 2.19413 26.1092L-1.63076 30.732C-0.0863613 32.0099 1.7783 32.9002 3.74014 33.5868L5.72204 27.9236ZM2.19412 26.1092C2.14981 26.0726 2.09609 26.0255 2.02472 25.9604L-2.02033 30.3918C-1.9087 30.4937 -1.77695 30.6111 -1.63075 30.732L2.19412 26.1092ZM34.042 26.212C33.6161 26.5457 33.0921 26.8692 32.4503 27.1819L35.0781 32.5758C36.0222 32.1159 36.9219 31.578 37.7427 30.9347L34.042 26.212ZM30.7709 30.0782L30.9361 32.5592L36.9228 32.1605L36.7576 29.6795L30.7709 30.0782ZM36.3112 34.1839C36.7721 33.5821 37.3598 32.7728 37.7535 31.9585L32.3515 29.3472C32.2436 29.5704 31.9829 29.9675 31.5477 30.5358L36.3112 34.1839ZM37.7535 31.9585C38.1261 31.1877 38.5446 30.2789 38.7927 29.34L32.992 27.8067C32.9047 28.1368 32.7167 28.5917 32.3515 29.3472L37.7535 31.9585ZM28.4092 28.5833C28.2483 28.6234 28.1203 28.6556 27.9905 28.6861L29.361 34.5274C29.5422 34.4849 29.7186 34.4405 29.863 34.4045L28.4092 28.5833ZM26.3086 33.4498C26.4684 33.6549 26.6378 33.867 26.8165 34.0812L31.4229 30.2366C31.2975 30.0863 31.1715 29.9289 31.0429 29.7637L26.3086 33.4498ZM32.1188 32.2329L32.1352 31.5678L26.137 31.4199L26.1206 32.0849L32.1188 32.2329Z" fill="white" mask="url(#path-1-inside-1_511_43242)"/>
<path d="M33.7876 33.0428C33.7546 33.0832 33.7193 33.1251 33.6819 33.1683L32.7391 19.0189L29.7429 19.0815L29.3968 33.0522C28.3687 31.9033 27.4228 30.603 27.0395 29.4592C26.0942 26.6386 25.7239 22.4151 27.0019 19.3468C27.8873 17.221 29.0239 14.8227 31.1821 12.822C31.6508 13.5104 32.207 14.1078 32.6771 14.6126C32.6897 14.6261 32.7021 14.6394 32.7145 14.6527C33.2319 15.2085 33.6498 15.6629 33.9794 16.1575C34.7731 17.3487 35.3619 18.6962 35.8659 20.1501C36.3395 21.5165 36.6153 22.9112 36.6731 24.3307C36.7295 25.7142 36.5517 27.1222 36.2134 28.5299C36.0403 29.2501 35.7224 29.9539 35.3216 30.7829C34.969 31.5124 34.3961 32.2969 33.7876 33.0428ZM31.5003 12.5364C31.5003 12.5364 31.5003 12.5364 31.5003 12.5364L32.2016 12.0664L31.5003 12.5364Z" stroke="url(#paint1_linear_511_43242)" stroke-width="3"/>
<path d="M33.7876 33.0428C33.7546 33.0832 33.7193 33.1251 33.6819 33.1683L32.7391 19.0189L29.7429 19.0815L29.3968 33.0522C28.3687 31.9033 27.4228 30.603 27.0395 29.4592C26.0942 26.6386 25.7239 22.4151 27.0019 19.3468C27.8873 17.221 29.0239 14.8227 31.1821 12.822C31.6508 13.5104 32.207 14.1078 32.6771 14.6126C32.6897 14.6261 32.7021 14.6394 32.7145 14.6527C33.2319 15.2085 33.6498 15.6629 33.9794 16.1575C34.7731 17.3487 35.3619 18.6962 35.8659 20.1501C36.3395 21.5165 36.6153 22.9112 36.6731 24.3307C36.7295 25.7142 36.5517 27.1222 36.2134 28.5299C36.0403 29.2501 35.7224 29.9539 35.3216 30.7829C34.969 31.5124 34.3961 32.2969 33.7876 33.0428ZM31.5003 12.5364C31.5003 12.5364 31.5003 12.5364 31.5003 12.5364L32.2016 12.0664L31.5003 12.5364Z" stroke="white" stroke-width="3"/>
<path d="M1.43845 60.9052H3.83547L8.00309 71.0813H8.15649L12.3241 60.9052H14.7211V73.9961H12.8419V64.5231H12.7204L8.85962 73.9769H7.29996L3.43916 64.5167H3.31772V73.9961H1.43845V60.9052ZM21.575 74.1942C20.6545 74.1942 19.8513 73.9833 19.1652 73.5614C18.4791 73.1396 17.9464 72.5494 17.5672 71.7908C17.1879 71.0323 16.9983 70.146 16.9983 69.1317C16.9983 68.1133 17.1879 67.2227 17.5672 66.4599C17.9464 65.6971 18.4791 65.1048 19.1652 64.6829C19.8513 64.261 20.6545 64.0501 21.575 64.0501C22.4955 64.0501 23.2987 64.261 23.9848 64.6829C24.6709 65.1048 25.2035 65.6971 25.5828 66.4599C25.9621 67.2227 26.1517 68.1133 26.1517 69.1317C26.1517 70.146 25.9621 71.0323 25.5828 71.7908C25.2035 72.5494 24.6709 73.1396 23.9848 73.5614C23.2987 73.9833 22.4955 74.1942 21.575 74.1942ZM21.5814 72.5898C22.178 72.5898 22.6723 72.4322 23.0643 72.1168C23.4564 71.8015 23.7462 71.3817 23.9337 70.8576C24.1254 70.3335 24.2213 69.756 24.2213 69.1254C24.2213 68.4989 24.1254 67.9237 23.9337 67.3995C23.7462 66.8711 23.4564 66.4471 23.0643 66.1275C22.6723 65.8079 22.178 65.6481 21.5814 65.6481C20.9805 65.6481 20.482 65.8079 20.0856 66.1275C19.6936 66.4471 19.4017 66.8711 19.2099 67.3995C19.0224 67.9237 18.9287 68.4989 18.9287 69.1254C18.9287 69.756 19.0224 70.3335 19.2099 70.8576C19.4017 71.3817 19.6936 71.8015 20.0856 72.1168C20.482 72.4322 20.9805 72.5898 21.5814 72.5898ZM30.1963 68.1665V73.9961H28.285V64.1779H30.1196V65.7759H30.241C30.4669 65.256 30.8206 64.8384 31.3021 64.5231C31.7879 64.2077 32.3994 64.0501 33.1366 64.0501C33.8056 64.0501 34.3916 64.1907 34.8944 64.4719C35.3973 64.7489 35.7872 65.1623 36.0642 65.712C36.3412 66.2617 36.4796 66.9414 36.4796 67.7511V73.9961H34.5684V67.9812C34.5684 67.2695 34.3831 66.7134 34.0123 66.3129C33.6416 65.908 33.1323 65.7056 32.4846 65.7056C32.0414 65.7056 31.6473 65.8015 31.3021 65.9933C30.9612 66.185 30.6906 66.4663 30.4903 66.837C30.2943 67.2035 30.1963 67.6467 30.1963 68.1665ZM43.1593 77.8825C42.3795 77.8825 41.7083 77.7802 41.1458 77.5756C40.5876 77.3711 40.1316 77.1005 39.7779 76.7638C39.4242 76.4272 39.16 76.0586 38.9853 75.658L40.6281 74.9805C40.7431 75.168 40.8966 75.3661 41.0883 75.5749C41.2843 75.788 41.5485 75.9691 41.8809 76.1183C42.2176 76.2674 42.6501 76.342 43.1785 76.342C43.9029 76.342 44.5017 76.1651 44.9747 75.8114C45.4477 75.462 45.6842 74.9038 45.6842 74.1367V72.2063H45.5627C45.4477 72.4151 45.2815 72.6474 45.0642 72.9031C44.8511 73.1587 44.5571 73.3803 44.1821 73.5678C43.8071 73.7553 43.3191 73.8491 42.7183 73.8491C41.9427 73.8491 41.2439 73.668 40.6217 73.3058C40.0038 72.9393 39.5137 72.4002 39.1515 71.6886C38.7936 70.9727 38.6146 70.0927 38.6146 69.0487C38.6146 68.0046 38.7914 67.1097 39.1451 66.364C39.5031 65.6183 39.9931 65.0472 40.6153 64.6509C41.2375 64.2504 41.9427 64.0501 42.7311 64.0501C43.3404 64.0501 43.8326 64.1523 44.2076 64.3569C44.5826 64.5572 44.8745 64.7915 45.0833 65.06C45.2964 65.3285 45.4605 65.565 45.5755 65.7695H45.7162V64.1779H47.589V74.2134C47.589 75.0572 47.393 75.7496 47.001 76.2908C46.6089 76.832 46.0784 77.2326 45.4093 77.4925C44.7446 77.7525 43.9946 77.8825 43.1593 77.8825ZM43.1402 72.2638C43.6899 72.2638 44.1544 72.136 44.5336 71.8803C44.9171 71.6204 45.2069 71.2496 45.4029 70.7681C45.6032 70.2823 45.7034 69.7006 45.7034 69.0231C45.7034 68.3626 45.6054 67.7809 45.4093 67.2781C45.2133 66.7752 44.9257 66.3832 44.5464 66.1019C44.1671 65.8164 43.6984 65.6737 43.1402 65.6737C42.5649 65.6737 42.0855 65.8228 41.7019 66.1211C41.3184 66.4151 41.0287 66.8157 40.8326 67.3228C40.6409 67.8299 40.545 68.3967 40.545 69.0231C40.545 69.6665 40.643 70.2312 40.839 70.717C41.035 71.2028 41.3248 71.582 41.7083 71.8548C42.0961 72.1275 42.5734 72.2638 43.1402 72.2638ZM54.2879 74.1942C53.3674 74.1942 52.5642 73.9833 51.8781 73.5614C51.192 73.1396 50.6593 72.5494 50.2801 71.7908C49.9008 71.0323 49.7112 70.146 49.7112 69.1317C49.7112 68.1133 49.9008 67.2227 50.2801 66.4599C50.6593 65.6971 51.192 65.1048 51.8781 64.6829C52.5642 64.261 53.3674 64.0501 54.2879 64.0501C55.2083 64.0501 56.0116 64.261 56.6977 64.6829C57.3838 65.1048 57.9164 65.6971 58.2957 66.4599C58.675 67.2227 58.8646 68.1133 58.8646 69.1317C58.8646 70.146 58.675 71.0323 58.2957 71.7908C57.9164 72.5494 57.3838 73.1396 56.6977 73.5614C56.0116 73.9833 55.2083 74.1942 54.2879 74.1942ZM54.2943 72.5898C54.8909 72.5898 55.3852 72.4322 55.7772 72.1168C56.1693 71.8015 56.4591 71.3817 56.6466 70.8576C56.8383 70.3335 56.9342 69.756 56.9342 69.1254C56.9342 68.4989 56.8383 67.9237 56.6466 67.3995C56.4591 66.8711 56.1693 66.4471 55.7772 66.1275C55.3852 65.8079 54.8909 65.6481 54.2943 65.6481C53.6934 65.6481 53.1948 65.8079 52.7985 66.1275C52.4065 66.4471 52.1146 66.8711 51.9228 67.3995C51.7353 67.9237 51.6416 68.4989 51.6416 69.1254C51.6416 69.756 51.7353 70.3335 51.9228 70.8576C52.1146 71.3817 52.4065 71.8015 52.7985 72.1168C53.1948 72.4322 53.6934 72.5898 54.2943 72.5898ZM65.3893 73.9961H61.1513V60.9052H65.5235C66.8062 60.9052 67.9077 61.1673 68.8282 61.6914C69.7486 62.2113 70.4539 62.9592 70.944 63.935C71.4383 64.9066 71.6854 66.0721 71.6854 67.4315C71.6854 68.7951 71.4361 69.967 70.9376 70.9471C70.4432 71.9272 69.7273 72.6815 68.7898 73.2099C67.8523 73.734 66.7188 73.9961 65.3893 73.9961ZM63.1265 72.2702H65.2806C66.2778 72.2702 67.1066 72.0827 67.7671 71.7077C68.4276 71.3285 68.9219 70.7809 69.2501 70.065C69.5782 69.3448 69.7423 68.467 69.7423 67.4315C69.7423 66.4045 69.5782 65.533 69.2501 64.8171C68.9262 64.1012 68.4425 63.5579 67.7991 63.1871C67.1556 62.8164 66.3566 62.631 65.4021 62.631H63.1265V72.2702ZM74.1416 73.9961V60.9052H78.9356C79.8646 60.9052 80.6338 61.0586 81.2431 61.3654C81.8525 61.668 82.3085 62.0792 82.611 62.5991C82.9136 63.1147 83.0649 63.6964 83.0649 64.3441C83.0649 64.8896 82.9647 65.3498 82.7644 65.7248C82.5642 66.0955 82.2957 66.3938 81.9591 66.6197C81.6267 66.8413 81.2602 67.0032 80.8596 67.1055V67.2333C81.2943 67.2546 81.7183 67.3952 82.1316 67.6552C82.5492 67.9109 82.8944 68.2752 83.1671 68.7482C83.4399 69.2212 83.5762 69.7965 83.5762 70.4741C83.5762 71.1431 83.4186 71.744 83.1032 72.2766C82.7921 72.805 82.3106 73.2248 81.6586 73.5359C81.0066 73.8427 80.1735 73.9961 79.1593 73.9961H74.1416ZM76.1167 72.3022H78.9676C79.9136 72.3022 80.5912 72.119 81.0002 71.7525C81.4093 71.386 81.6139 70.9279 81.6139 70.3782C81.6139 69.9648 81.5095 69.5856 81.3007 69.2404C81.0919 68.8952 80.7936 68.6204 80.4058 68.4158C80.0223 68.2113 79.5663 68.109 79.0379 68.109H76.1167V72.3022ZM76.1167 66.5685H78.763C79.2062 66.5685 79.6046 66.4833 79.9583 66.3129C80.3163 66.1424 80.5997 65.9038 80.8085 65.5969C81.0216 65.2859 81.1281 64.9194 81.1281 64.4975C81.1281 63.9563 80.9385 63.5025 80.5592 63.136C80.1799 62.7695 79.5983 62.5863 78.8142 62.5863H76.1167V66.5685Z" fill="white"/>
<defs>
<linearGradient id="paint0_linear_511_43242" x1="0.000244412" y1="19.994" x2="108.536" y2="19.994" gradientUnits="userSpaceOnUse">
<stop stop-color="#EC6738"/>
<stop offset="1" stop-color="#E00094"/>
</linearGradient>
<linearGradient id="paint1_linear_511_43242" x1="24.6799" y1="24.9109" x2="64.9814" y2="24.9109" gradientUnits="userSpaceOnUse">
<stop stop-color="#EC6738"/>
<stop offset="1" stop-color="#E00094"/>
</linearGradient>
</defs>
</svg>
