<svg width="100%" height="100%" viewBox="0 0 32 33" fill="none" xmlns="http://www.w3.org/2000/svg">
<path d="M8.02352 2.14906C4.06014 3.21572 3.22355 3.46669 3.66276 3.46669C3.74642 3.46669 5.75425 3.98957 8.12809 4.61701C10.5019 5.25492 12.5098 5.76733 12.5725 5.76733C12.8549 5.76733 21.6287 3.41441 21.5555 3.35166C21.5136 3.32029 21.0117 3.16343 20.4365 3.01702C19.8614 2.87062 17.8744 2.34775 16.0339 1.85625C14.183 1.35429 12.6039 0.956907 12.5307 0.967364C12.447 0.967364 10.4183 1.50069 8.02352 2.14906Z" fill="#E8C816"/>
<path d="M21.0431 4.62766L20.698 4.73224V6.52046V8.31914L20.4365 8.53875C20.1646 8.7479 20.1646 8.7479 20.196 10.2956L20.2274 11.8538L20.7084 11.4877L21.179 11.1217L21.6496 11.4773C21.9006 11.6655 22.1411 11.8328 22.1934 11.8328C22.2352 11.8328 22.2666 11.1217 22.2666 10.2642V8.69561L22.0052 8.57012L21.7437 8.45509V6.47863C21.7437 4.29302 21.7856 4.40805 21.0431 4.62766Z" fill="#E8C816"/>
<path d="M6.39212 7.20013L6.42349 9.15567L8.77642 9.6158C10.8679 10.0236 11.2862 10.0759 12.5934 10.0759C13.8901 10.0759 14.3293 10.0236 16.4104 9.62626L18.7633 9.16613L18.7947 7.20013C18.8156 5.35962 18.8051 5.23413 18.6378 5.28642C17.4561 5.63151 12.7503 6.83412 12.5934 6.83412C12.4784 6.83412 11.0457 6.47856 9.40387 6.03935C7.76205 5.60014 6.41304 5.24459 6.39212 5.24459C6.38166 5.24459 6.38166 6.12301 6.39212 7.20013Z" fill="#E8C816"/>
<path d="M6.42358 10.8602C6.52816 11.7909 6.68502 12.3451 7.01966 13.0353C7.68893 14.4053 8.65102 15.3569 9.97912 15.9634C10.8785 16.3817 11.5896 16.5386 12.5935 16.5386C13.5974 16.5386 14.3085 16.3817 15.2078 15.9634C17.2366 15.0327 18.481 13.2445 18.7738 10.8497L18.847 10.2327L18.4392 10.2955C18.2091 10.3268 17.1634 10.5151 16.0967 10.7138C12.834 11.3412 12.2275 11.3308 8.61965 10.6301C7.58436 10.4314 6.65365 10.2641 6.53861 10.2641C6.3713 10.2641 6.35038 10.3268 6.42358 10.8602Z" fill="#E8C816"/>
<path d="M10.711 17.3649L10.2927 17.4276L11.4117 18.2851C12.0287 18.7662 12.562 19.1531 12.5934 19.1531C12.6247 19.1531 13.1581 18.7662 13.7751 18.2851L14.894 17.4276L14.4234 17.3544C13.8483 17.2707 11.2862 17.2707 10.711 17.3649Z" fill="#E8C816"/>
<path d="M8.55681 17.9295L8.28491 18.055L9.28883 19.8537C9.84307 20.8472 10.3137 21.6628 10.345 21.6628C10.3764 21.6628 10.7215 21.2759 11.1189 20.8158C11.7045 20.1151 11.8091 19.9478 11.694 19.8328C11.2862 19.4459 9.05876 17.7936 8.95419 17.7936C8.88099 17.804 8.70321 17.8563 8.55681 17.9295Z" fill="#E8C816"/>
<path d="M14.8836 18.7452C14.2039 19.2681 13.5764 19.7596 13.4928 19.8328C13.3777 19.9478 13.4823 20.1151 14.0679 20.8158C14.4653 21.2759 14.8104 21.6628 14.8418 21.6628C14.9463 21.6524 16.9019 18.055 16.8391 17.9923C16.8078 17.9504 16.63 17.8877 16.4522 17.8563C16.1594 17.7936 16.0025 17.8772 14.8836 18.7452Z" fill="#E8C816"/>
<path d="M6.32936 18.9648C3.56859 20.6171 1.49802 23.3674 0.724164 26.421C0.462728 27.4563 0.462728 27.7491 0.703249 27.9687C0.881026 28.136 1.6235 28.1465 9.1947 28.1465C14.2456 28.1465 17.4561 28.1047 17.4038 28.0524C17.3411 28.0001 17.0169 27.8432 16.6718 27.7073L16.0443 27.4563L16.013 25.7726L15.992 24.089L16.6927 23.8171C17.3829 23.5557 17.4143 23.5243 17.6234 23.0014L17.8326 22.4472L17.5293 21.7779L17.226 21.0982L18.1777 20.1674C18.7005 19.6446 19.1293 19.1949 19.1293 19.1531C19.1293 19.038 17.8953 18.4106 17.843 18.4943C17.8221 18.5465 17.2469 19.5609 16.5672 20.774C15.8875 21.9766 15.2809 23.0014 15.2182 23.0432C14.8836 23.2733 14.643 23.0955 13.6496 21.9243C13.0953 21.2655 12.6143 20.7217 12.5934 20.7217C12.5725 20.7217 12.0914 21.2655 11.5372 21.9243C10.5437 23.0955 10.3032 23.2733 9.96855 23.0432C9.90581 23.0014 9.29927 21.9766 8.61954 20.774C7.95026 19.5609 7.36465 18.5465 7.32282 18.4943C7.28099 18.4524 6.83132 18.6616 6.32936 18.9648Z" fill="#E8C816"/>
<path d="M23.2182 18.7556C23.1763 18.8916 23.0718 19.1635 22.9985 19.3726C22.8835 19.6863 22.7789 19.7804 22.4338 19.885C22.1933 19.9582 21.7855 20.1255 21.5136 20.2615L21.0221 20.5125L20.4678 20.251L19.9136 19.9896L19.2025 20.7112L18.4809 21.4223L18.7528 21.966L19.0247 22.4994L18.7737 22.9909C18.6378 23.2732 18.4705 23.6811 18.3973 23.9216C18.2822 24.3085 18.2195 24.3713 17.6757 24.5595L17.0901 24.7686V25.7516V26.7346L17.6548 26.9543C18.1986 27.1739 18.23 27.2157 18.4496 27.8222C18.575 28.1673 18.7528 28.5647 18.8469 28.7111C19.0143 28.9516 19.0038 29.0039 18.7528 29.5686L18.4914 30.1647L19.1502 30.834C19.5058 31.1895 19.8613 31.4928 19.9345 31.4928C20.0077 31.4928 20.2796 31.3882 20.5306 31.2627L21.0012 31.0431L21.6495 31.3359C22.0051 31.4928 22.4234 31.6601 22.5698 31.6915C22.7685 31.7542 22.894 31.9111 23.0613 32.3398L23.2914 32.9045L24.2848 32.9359L25.2783 32.9673L25.456 32.4444C25.6547 31.8483 25.7175 31.7751 26.2926 31.5974C26.5227 31.5242 26.8992 31.3673 27.1188 31.2627L27.5371 31.0536L28.1018 31.2836L28.6665 31.5242L29.3462 30.834L30.0364 30.1542L29.7959 29.5895L29.5658 29.0248L29.775 28.6065C29.8796 28.3869 30.0364 28.0105 30.1096 27.7804C30.2874 27.2052 30.3606 27.1425 30.9567 26.9438L31.4795 26.766L31.4482 25.7726L31.4168 24.7791L30.8521 24.549C30.4233 24.3817 30.2665 24.2562 30.2037 24.0575C30.1724 23.9111 30.005 23.4928 29.8482 23.1373L29.5554 22.4889L29.775 22.0183C29.9005 21.7674 30.005 21.4955 30.005 21.4223C30.005 21.3491 29.7122 20.9935 29.3462 20.638L28.6874 19.9791L28.0913 20.251C27.5162 20.502 27.4743 20.502 27.2234 20.3451C27.0874 20.251 26.6796 20.0628 26.3345 19.9373C25.7279 19.7177 25.6861 19.6863 25.4665 19.1425L25.2469 18.5778L24.2744 18.5465C23.3541 18.5151 23.3018 18.5255 23.2182 18.7556ZM25.7698 22.7294C26.0626 22.8863 26.5018 23.2209 26.7423 23.4824C27.3802 24.1726 27.6207 24.7896 27.6417 25.7412C27.6521 26.4418 27.6103 26.6196 27.307 27.2261C26.7005 28.4706 25.6234 29.1399 24.2534 29.1189C23.3018 29.1085 22.6953 28.868 21.9946 28.2301C21.3044 27.5922 20.9907 26.9124 20.928 25.9503C20.8652 24.8837 21.158 24.1203 21.8901 23.3778C22.643 22.6353 23.3123 22.3843 24.4103 22.4262C25.0587 22.4575 25.3619 22.5203 25.7698 22.7294Z" fill="#E8C816"/>
</svg>
