
<svg width="148" height="153" viewBox="0 0 148 153" fill="none" xmlns="http://www.w3.org/2000/svg">
<g filter="url(#filter0_d_3353_141941)">
<path d="M129.593 90.508C139.261 60.9194 122.696 28.8347 92.5939 18.8448C62.4917 8.85496 30.2519 24.7429 20.5841 54.3315C10.9163 83.92 27.4816 116.005 57.5837 125.995C60.6683 127.018 63.7753 127.77 66.8782 128.264L77.2949 139.934L86.7874 127.948C106.272 124.198 123.07 110.472 129.593 90.508Z" fill="url(#paint0_linear_3353_141941)"/>
<path d="M129.593 90.508C139.261 60.9194 122.696 28.8347 92.5939 18.8448C62.4917 8.85496 30.2519 24.7429 20.5841 54.3315C10.9163 83.92 27.4816 116.005 57.5837 125.995C60.6683 127.018 63.7753 127.77 66.8782 128.264L77.2949 139.934L86.7874 127.948C106.272 124.198 123.07 110.472 129.593 90.508Z" fill="url(#paint1_linear_3353_141941)"/>
</g>
<path d="M92.9583 25.5759C117.452 36.0229 129.258 65.3797 119.327 91.1462C109.396 116.913 81.4888 129.332 56.9948 118.885C32.5008 108.438 20.6952 79.0809 30.6263 53.3144C40.5573 27.5478 68.4643 15.1289 92.9583 25.5759Z" fill="white"/>
<defs>
<filter id="filter0_d_3353_141941" x="13.6979" y="11.7281" width="131.044" height="140.596" filterUnits="userSpaceOnUse" color-interpolation-filters="sRGB">
<feFlood flood-opacity="0" result="BackgroundImageFix"/>
<feColorMatrix in="SourceAlpha" type="matrix" values="0 0 0 0 0 0 0 0 0 0 0 0 0 0 0 0 0 0 127 0" result="hardAlpha"/>
<feOffset dx="4.13026" dy="4.13026"/>
<feGaussianBlur stdDeviation="4.13026"/>
<feColorMatrix type="matrix" values="0 0 0 0 0.431373 0 0 0 0 0.447059 0 0 0 0 0.443137 0 0 0 0.45 0"/>
<feBlend mode="normal" in2="BackgroundImageFix" result="effect1_dropShadow_3353_141941"/>
<feBlend mode="normal" in="SourceGraphic" in2="effect1_dropShadow_3353_141941" result="shape"/>
</filter>
<linearGradient id="paint0_linear_3353_141941" x1="18.0061" y1="75.7129" x2="132.038" y2="67.2541" gradientUnits="userSpaceOnUse">
<stop stop-color="#4FD0FF"/>
<stop offset="1" stop-color="#0092FF"/>
</linearGradient>
<linearGradient id="paint1_linear_3353_141941" x1="22.3005" y1="103.201" x2="127.771" y2="52.7023" gradientUnits="userSpaceOnUse">
<stop stop-color="#FFB100"/>
<stop offset="1" stop-color="#FF5C00"/>
</linearGradient>
</defs>
</svg>
